<?xml version="1.0" encoding="utf-8"?>
<!-- Generator: Adobe Illustrator 15.1.0, SVG Export Plug-In . SVG Version: 6.00 Build 0)  -->
<!DOCTYPE svg PUBLIC "-//W3C//DTD SVG 1.1//EN" "http://www.w3.org/Graphics/SVG/1.1/DTD/svg11.dtd">
<svg version="1.1" id="Layer_1" xmlns="http://www.w3.org/2000/svg" xmlns:xlink="http://www.w3.org/1999/xlink" x="0px" y="0px"
	 width="500px" height="300px" viewBox="0 0 500 300" enable-background="new 0 0 500 300" xml:space="preserve">
<g>
	<g>
		<path fill="#6ACFF6" d="M216.02,123.788c27.321-4.554,48.531-5.357,75.963-5.357c12.664,0,45.376,2.143,51.636,9.178l0.299-0.307
			l-0.189-18.614c-5.14-7.167-31.396-12.163-51.745-12.163h-2.601c-21.65-0.01-37.572-0.01-65.994,5.927
			C220.457,109.54,218.058,116.398,216.02,123.788z"/>
		<path fill="#27AAE1" d="M368.218,47.035c-6.499-18.864-41.02-30.912-71.276-32.119c-1.146,0.729-2.662,1.716-4.508,2.962
			c-4.39,2.976-10.611,7.441-17.681,13.548c-1.946,1.678-3.957,3.488-6.008,5.417c8.548-0.755,16.148-0.668,23.228-0.354
			c10.771,0.479,46.776,3.338,57.924,19.982c2.219,3.315,3.322,7.015,3.319,11.06l0.015,0.031v11.258
			C366.69,67.929,371.733,57.24,368.218,47.035z"/>
		<path fill="#6ACFF6" d="M225.142,98.347c27.374-5.922,44.202-5.927,66.842-5.927c20.318,0,51.269,5.921,54.87,13.894l0.402-0.146
			l-0.212-19.134c-3.571-11.199-31.353-18.721-55.061-18.721c-19.735,0-35.79,0.894-53.123,4.514
			c-2.882,4.497-5.639,9.206-8.206,14.1C228.702,90.637,226.861,94.453,225.142,98.347z"/>
		<path fill="#6ACFF6" d="M211.101,147.004c35.367-2.141,57.062-2.005,72.791-1.906c2.908,0.019,5.59,0.036,8.092,0.036
			c13.44,0,40.888,0.707,48.572,3.381l0.142-0.406l-0.132-17.911c-4.478-4.589-28.734-7.671-48.582-7.671
			c-1.277,0-2.61-0.004-4.004-0.008c-15.353-0.044-37.429-0.104-72.836,4.535C213.411,133.705,212.073,140.394,211.101,147.004z"/>
		<path fill="#6ACFF6" d="M241.498,68.824c19.399-4.01,34.903-4.047,50.482-4.047c21.54,0,53.415,5.44,58.402,20.51l0.418-0.091
			l-0.213-19.027c-3.348-18.781-38.407-25.135-58.595-25.927c-9.367-0.368-18.292-0.286-27.396,0.625
			c-4.12,4.116-8.342,8.705-12.5,13.764C248.478,59.024,244.916,63.775,241.498,68.824z"/>
		<path fill="#1C75BC" d="M274.385,30.992c2.293-1.909,4.496-3.649,6.577-5.231c4.853-3.854,9.888-7.488,15.098-10.877
			c-1.369-0.045-2.729-0.07-4.076-0.07c-28.482,0-55.74,4.371-96.191,25.701c-7.751,4.087-54.38,34.639-54.38,49.371h0.214
			l0.107,0.187c0.27-0.155,27.029-15.488,27.552-15.794c45.312-26.639,75.265-35.104,98.279-37.328
			C269.9,34.809,272.183,32.822,274.385,30.992z"/>
		<path fill="#27AAE1" d="M220.87,102.986c-7.384,1.592-15.601,3.575-24.954,6.049c-0.522,0.138-52.219,13.973-52.219,28.135h0.214
			l0.043,0.21c0.243-0.049,24.282-4.903,24.577-4.959c17.467-3.359,32.034-6.339,44.796-8.239
			C215.428,116.835,217.888,110.024,220.87,102.986z"/>
		<path fill="#27AAE1" d="M251.212,53.891c4.021-4.72,8.088-9.017,12.063-12.891c-19.568,2.126-40.11,8.172-67.805,22
			c-10.559,5.271-53.214,29.548-53.214,43.313h0.214l0.09,0.195c0.257-0.118,25.812-11.857,26.149-12.014
			c29.53-13.638,51.947-21.157,70.699-25.231C243.208,63.757,247.182,58.61,251.212,53.891z"/>
		<path fill="#27AAE1" d="M236.702,73.289c-12.391,2.733-25.53,6.876-41.207,13.116c-8.757,3.484-53.239,23.568-53.239,34.908h0.214
			l0.059,0.206c1.057-0.297,25.89-7.285,26.268-7.407c22.309-7.2,39.532-12.008,53.867-15.222c1.98-4.387,4.113-8.675,6.385-12.825
			C231.463,81.642,234.03,77.376,236.702,73.289z"/>
		<path fill="#27AAE1" d="M212.431,127.413c-5.22,0.707-10.719,1.511-16.525,2.434c-5.343,0.849-52.209,8.696-52.209,22.609h0.214
			l0.022,0.212c0.244-0.023,24.377-2.454,24.719-2.484c14.81-1.297,27.904-2.271,39.56-3.002
			C209.251,140.625,210.649,133.997,212.431,127.413z"/>
	</g>
	<g>
		<path fill="#27AAE1" d="M242.031,239.584c0,0.998-0.969,1.677-1.887,1.75h-10.937v-54.056c0-1.132,0-1.814,3.79-1.814h2.265
			v-0.059h0.366v-10.026h-0.366v-0.133h-22.382v10.218h4.871c0.818,0.156,1.422,0.917,1.422,1.814v52.232
			c-0.085,1.264-0.344,1.823-4.153,1.823h-2.266v10.028h39.302v-16.388h-10.025V239.584z"/>
		<path fill="#27AAE1" d="M191.712,175.379h-0.066v33.206c0,6.927-3.161,13.479-8.53,17.839c-5.312-4.42-8.439-10.973-8.439-17.839
			v-33.206h-0.115v-0.133h-2.265c-4.425,0-6.577-0.001-10.999-0.009l-2.269-0.004v10.23h4.202c0.821,0.156,1.427,0.917,1.427,1.814
			v21.307c0,10.433,5.127,20.493,13.46,26.557v4.328c0,1.083,0,1.864-4.098,1.864h-2.266v10.028h22.813v-10.028h-2.264
			c-4.16,0-4.16-0.864-4.16-1.864v-4.214c8.493-6.267,13.528-16.146,13.528-26.671v-21.307c0-0.833,0.671-1.62,1.521-1.814h4.348
			v-10.218h-15.829V175.379z"/>
		<path fill="#27AAE1" d="M427.87,175.246v0.133h-0.071v33.206c0,6.931-3.161,13.483-8.532,17.84
			c-5.309-4.418-8.433-10.972-8.433-17.84v-33.206h-0.12v-0.133h-2.265c-4.427,0-6.576-0.001-10.998-0.009l-2.269-0.004v10.23h4.211
			c0.814,0.156,1.418,0.917,1.418,1.814v21.307c0,10.43,5.128,20.49,13.461,26.557v4.328c0,1.083,0,1.864-4.098,1.864h-2.265v10.028
			h22.814v-10.028h-2.265c-4.163,0-4.163-0.864-4.163-1.864v-4.214c8.492-6.264,13.528-16.146,13.528-26.671v-21.307
			c0-0.833,0.669-1.62,1.517-1.814h4.353v-10.218H427.87z"/>
		<path fill="#27AAE1" d="M316.894,186.477c-7.358-7.364-16.438-11.098-26.989-11.098c-10.491,0-19.51,3.736-26.784,11.085
			c-4.076,4.019-7.083,8.645-8.931,13.734c-1.486,3.987-2.24,8.43-2.24,13.202c0,4.755,0.732,9.034,2.234,13.068
			c1.847,5.072,4.849,9.713,8.925,13.794c7.359,7.365,16.375,11.1,26.796,11.1c10.48,0,19.559-3.732,26.989-11.101
			c5.021-5.027,8.265-10.562,9.905-16.884c0.829-3.034,1.25-6.391,1.25-9.978c0-3.677-0.41-6.965-1.245-10.023
			C325.152,197.023,321.815,191.334,316.894,186.477z M289.904,241.334c-7.632,0-14.237-2.768-19.649-8.239
			c-5.575-5.519-8.285-11.96-8.285-19.694c0-7.82,2.711-14.307,8.292-19.836c5.42-5.415,12.028-8.159,19.643-8.159
			c7.791,0,14.282,2.671,19.822,8.148c5.501,5.566,8.174,12.058,8.174,19.847c0,7.703-2.673,14.15-8.165,19.702
			C304.201,238.641,297.714,241.334,289.904,241.334z"/>
		<path fill="#27AAE1" d="M373.401,229.765c0,4.259-1.781,8.346-4.838,11.248c-3.096-2.918-4.901-7.007-4.901-11.248v-54.386H353.64
			v54.386c0,4.267-1.787,8.358-4.851,11.257c-3.088-2.892-4.889-6.983-4.889-11.257v-54.386h-16.452v10.026h4.493
			c1.139,0,1.933,0.744,1.933,1.81v42.55c0,9.316,4.754,17.121,13.749,22.567l1.153,0.697l1.164-0.679
			c3.629-2.124,6.569-4.645,8.776-7.525c2.255,2.885,5.164,5.401,8.688,7.513l1.166,0.699l1.166-0.703
			c8.953-5.396,13.686-13.199,13.686-22.569v-42.486c0-0.833,0.673-1.62,1.524-1.814h5.023v-10.218h-16.568V229.765z"/>
		<path fill="#27AAE1" d="M107.279,175.229l-2.258,0.005v5.651v4.6v6.304h10.021v-4.607c0-0.888,0.767-1.524,1.583-1.707
			l7.754-0.008v54.004c0,1.083,0,1.864-4.035,1.864h-2.266v10.028h22.881v-10.028h-2.265c-4.158,0-4.158-0.742-4.158-1.864v-54.006
			h7.471c0.842,0.163,1.652,0.806,1.652,1.717v4.607h10.02v-6.324v-4.579v-5.643l-2.26-0.005
			C141.2,175.213,117.49,175.2,107.279,175.229z"/>
		<path fill="#27AAE1" d="M88.009,202.184c-3.539-2.437-7.197-4.956-10.107-7.918c-1.744-1.768-2.323-3.929-1.547-5.783
			c0.772-1.851,2.713-2.957,5.196-2.957l6.731-0.018c0.771,0.214,1.472,0.825,1.472,1.673v4.607H99.78v-6.312h0.028v-10.254
			l-2.27,0.006c-6.057,0.013-7.611,0.042-11.008,0.105c-1.403,0.027-3.125,0.061-5.614,0.1l-0.213-0.002
			c-5.942,0-11.12,3.472-13.51,9.06c-2.391,5.584-1.328,11.72,2.777,16.021c2.764,2.869,6.36,5.339,10.168,7.951
			c7.083,4.861,14.397,9.881,15.141,17.2v1.315c0,7.88-6.438,14.291-14.351,14.291c-7.946,0-14.413-6.411-14.413-14.291
			c0-3.85,1.519-7.49,4.278-10.253l1.613-1.613l-7.234-7.117l-1.587,1.567c-4.695,4.635-7.28,10.82-7.28,17.416
			c0,13.512,11.045,24.505,24.623,24.505c13.542,0,24.558-10.993,24.558-24.505v-2.691h-0.252
			C104.106,213.268,95.929,207.639,88.009,202.184z"/>
	</g>
	<g>
		<g>
			<path fill="#27AAE1" d="M345.942,285.136v-2.181h0.051c2.178,0,2.683-1.286,2.683-3.185c0-1.899-0.505-3.128-2.683-3.128
				c-0.051,0-0.051,0-0.051,0v-2.236c3.626,0,5.246,2.012,5.246,5.531c0,3.292-1.735,5.198-5.083,5.198
				C346.049,285.136,345.993,285.136,345.942,285.136L345.942,285.136z M355.714,274.466l2.4,7.985l2.234-7.985h2.516l2.234,7.985
				l2.401-7.985h2.289l-3.409,10.609h-2.569l-2.177-7.654l-2.234,7.654h-2.57l-3.41-10.609H355.714L355.714,274.466z
				 M381.02,274.466v2.123h-2.908c-2.122,0-2.85,0.054-3.013,2.123h4.074v2.116h-4.074c0.163,2.014,1.228,2.127,3.123,2.127h2.798
				v2.12h-2.908c-0.783,0-1.507-0.056-2.122-0.167c-2.569-0.392-3.464-2.849-3.464-5.194c0-3.185,1.618-5.248,4.691-5.248H381.02
				L381.02,274.466z M383.978,285.075v-2.12h2.121c2.348,0,2.907-0.279,2.907-2.736v-5.753h2.234v5.975
				c0,3.461-1.174,4.635-4.858,4.635H383.978z M345.942,274.406v2.236c-2.238,0-2.743,1.175-2.743,3.128
				c0,1.952,0.505,3.185,2.743,3.185v2.181c-3.358-0.061-5.201-1.847-5.201-5.31C340.741,276.194,342.364,274.466,345.942,274.406
				L345.942,274.406z M269.576,281.058v-2.071h0.84c1.957,0,1.957-2.344,0-2.344h-0.84v-2.177h0.617
				c1.448,0,2.516,0.222,3.072,0.554c1.562,1.007,1.734,3.469,0.503,4.751c-0.28,0.335-0.727,0.556-1.23,0.724
				c1.455,0.503,1.79,1.565,1.9,2.964c0.054,0.778,0.165,1.341,0.276,1.617h-2.564c-0.396-1.227,0.053-2.96-1.287-3.683
				C270.532,281.223,270.082,281.112,269.576,281.058L269.576,281.058z M280.693,280.44l-3.913-5.975h2.687l2.4,4.129l2.569-4.129
				h2.682l-4.132,6.028v4.581h-2.293V280.44L280.693,280.44z M302.592,278.651v2.126h-4.248v4.298h-2.293v-5.529
				c0.061-3.687,1.12-5.08,4.922-5.08h3.685v2.177h-3.411c-2.007,0-2.902-0.225-2.902,2.009H302.592L302.592,278.651z
				 M308.288,285.075v-10.609h2.233v10.609H308.288L308.288,285.075z M314.601,274.466h2.233v5.753c0,2.288,0.28,2.736,2.85,2.736
				h2.178v2.12h-2.402c-3.572,0-4.858-1.005-4.858-4.635V274.466L314.601,274.466z M328.397,274.466l2.68,8.265l2.739-8.265h3.296
				v10.609h-2.122v-7.929l-2.792,7.929h-2.29l-2.628-7.929v7.929h-2.176v-10.609H328.397z M269.576,274.466v2.177h-2.348v2.344
				h2.348v2.071c-0.167,0-0.334,0-0.5,0h-1.848v4.018h-2.229v-10.609H269.576L269.576,274.466z M161.991,281.058v-2.071h0.783
				c2.014,0,2.069-2.344,0-2.344h-0.783v-2.177h0.56c1.513,0,2.516,0.222,3.131,0.554c1.506,1.007,1.675,3.469,0.5,4.751
				c-0.334,0.335-0.783,0.556-1.282,0.724c0.387,0.166,0.722,0.334,0.948,0.503c0.222,0.167,0.39,0.396,0.556,0.726
				c0.562,1.063,0.285,2.237,0.674,3.353h-2.513c-0.114-0.223-0.169-0.726-0.225-1.509
				C164.117,281.895,163.501,281.164,161.991,281.058L161.991,281.058z M172.774,274.466v5.921c0,1.561,0.559,2.508,2.401,2.508
				c1.842,0,2.35-0.779,2.35-2.508v-5.921h2.23v6.252c0,3.015-1.394,4.47-4.632,4.47c-3.183,0-4.639-1.286-4.639-4.299v-6.423
				H172.774L172.774,274.466z M187.072,274.466l2.63,8.265l2.788-8.265h3.295v10.609h-2.175v-7.929l-2.794,7.929h-2.293
				l-2.625-7.929v7.929h-2.122v-10.609H187.072L187.072,274.466z M208.137,274.466v10.609h-2.238v-10.609H208.137L208.137,274.466z
				 M208.245,279.714l4.025-5.248h2.954l-4.409,5.248l4.243,5.361h-3.013L208.245,279.714L208.245,279.714z M220.478,274.466v5.975
				c0,1.563,0.612,2.515,2.403,2.515c1.842,0,2.344-0.84,2.344-2.515v-5.975h2.234v6.252c0,3.015-1.339,4.47-4.578,4.47
				c-3.185,0-4.639-1.286-4.639-4.299v-6.423H220.478L220.478,274.466z M231.373,274.466h2.29v5.691c0,2.35,0.277,2.737,2.849,2.737
				h2.177v2.181h-2.4c-3.579,0-4.862-1.005-4.916-4.635V274.466L231.373,274.466z M242.993,276.362h-3.356v-1.896h9.106v1.896
				h-3.519v8.713h-2.231V276.362L242.993,276.362z M254.052,274.466v5.975c0,1.563,0.559,2.515,2.401,2.515
				c1.729,0,2.289-0.84,2.289-2.515v-5.975h2.233v6.252c0,3.015-1.398,4.47-4.58,4.47c-3.183,0-4.64-1.286-4.64-4.299v-6.423
				H254.052z M117.418,282.895v2.181h-3.686c-0.728,0-1.287-0.056-1.624-0.108c-2.57-0.503-3.348-2.852-3.348-5.141
				c0-3.521,1.564-5.36,5.082-5.36h3.575v2.177h-3.351c-2.182,0-2.793,0.945-2.793,2.961c0,2.23,0.448,3.291,2.906,3.291H117.418
				L117.418,282.895z M161.991,274.466v2.177h-2.342v2.344h2.342v2.071c-0.165,0-0.337,0-0.556,0h-1.787v4.018h-2.288v-10.609
				H161.991L161.991,274.466z M128.926,274.466v2.177h-2.904c-2.123,0-2.85-0.054-3.019,2.009h4.08v2.177h-4.08
				c0.058,0.951,0.336,1.176,0.785,1.566c0.448,0.336,1.225,0.5,2.288,0.5h2.85v2.181h-2.904c-0.839,0-1.512-0.056-2.123-0.167
				c-2.573-0.392-3.463-2.849-3.463-5.194c0-3.185,1.621-5.248,4.694-5.248H128.926L128.926,274.466z M134.848,277.312v7.764h-2.127
				v-10.609h2.854l4.246,7.929v-7.929h2.122v10.609H139.2L134.848,277.312L134.848,277.312z M148.474,276.643h-3.352v-2.177h9.106
				v2.177h-3.52v8.433h-2.235V276.643z"/>
		</g>
	</g>
</g>
</svg>
