<?xml version="1.0" encoding="utf-8"?>
<!-- Generator: Adobe Illustrator 15.1.0, SVG Export Plug-In . SVG Version: 6.00 Build 0)  -->
<!DOCTYPE svg PUBLIC "-//W3C//DTD SVG 1.1//EN" "http://www.w3.org/Graphics/SVG/1.1/DTD/svg11.dtd">
<svg version="1.1" id="Layer_1" xmlns="http://www.w3.org/2000/svg" xmlns:xlink="http://www.w3.org/1999/xlink" x="0px" y="0px"
	 width="250px" height="300px" viewBox="125 0 250 300" enable-background="new 125 0 250 300" xml:space="preserve">
<g>
	<path fill="#FFFFFF" d="M189.004,202.12v-9.396c0-11.759-4.709-16.348-16.802-16.348h-21.158v42.744h22.645
		C184.84,219.121,189.004,214.518,189.004,202.12z M160.578,212.524v-29.875h11.709c3.304,0,7.252,1.888,7.252,8.848v11.646
		c0,7.489-3.948,9.381-7.252,9.381H160.578z"/>
	<polygon fill="#FFFFFF" points="228.579,234.838 228.579,277.732 237.499,277.732 237.499,249.812 247.165,270.785 
		251.406,270.785 262.363,247.012 262.581,277.732 271.045,277.732 271.045,234.838 260.167,234.838 249.257,257.367 
		239.266,234.838 	"/>
	<polygon fill="#FFFFFF" points="241.148,176.377 241.148,219.117 268.295,219.117 268.295,212.003 250.683,212.003 
		250.683,176.377 	"/>
	<path fill="#FFFFFF" d="M159.875,277.714l3.579-9.498h16.106l3.579,9.498h8.683l-15.045-42.596h-10.373l-15.36,42.596H159.875z
		 M171.507,246.854l4.475,12.014l-9.229,0.056L171.507,246.854z"/>
	<path fill="#FFFFFF" d="M151.044,160.979h197.912V21.941H151.044V160.979z M303.007,39.997h22.643v102.958h-22.643
		c-23.413,0-42.98-23.12-42.98-51.681C260.027,63.504,279.594,39.997,303.007,39.997z M174.384,39.997h22.564
		c23.407,0,42.985,23.51,42.985,51.276c0,28.562-19.578,51.681-42.98,51.681h-22.569V39.997z"/>
	<path fill="#FFFFFF" d="M228.8,178.756c-2.914-2.042-7.816-3.114-14.186-3.114c-6.228,0-10.751,0.863-14.206,3.141
		c-3.627,2.351-5.325,6.321-5.325,12.509v13.452c0,6.229,1.765,10.411,5.29,12.501c2.847,2.002,7.479,2.955,14.241,2.955
		c6.675,0,11.444-0.979,14.17-2.904c3.522-2.214,5.365-6.533,5.365-12.552v-13.452C234.15,185.398,232.35,181.181,228.8,178.756z
		 M224.576,204.153c0,7.576-2.607,9.321-9.965,9.321c-7.341,0-9.962-1.745-9.962-9.321v-12.802c0-7.393,2.621-8.989,9.962-8.989
		c7.357,0,9.965,1.597,9.965,8.989V204.153z"/>
	<path fill="#FFFFFF" d="M305.833,186.764c0-4.722-1.967-7.121-4.123-8.468c-1.806-1.144-3.951-1.919-8.438-1.919h-19.746v42.737
		h20.011c6.146,0,8.703-1.219,9.9-2.045c2.037-1.379,4.667-4.42,4.667-9.292c0.004-5.744-1.965-11.485-11.384-11.273
		C304.215,195.813,305.833,192.093,305.833,186.764z M287.71,194.307v4.957c6.523-0.025,11.768-0.428,11.768,6.413
		c0.004,3.438-2.17,7.224-7.815,7.224h-8.609v-0.042v-30.329v-0.026h9.373c3.188,0,5.171,2.559,5.171,6.048
		C297.597,193.91,295.027,194.038,287.71,194.307z"/>
	<path fill="#FFFFFF" d="M337.634,270.312h-18.172v4.447c1.594,1.863,5.08,2.395,7.643,2.395h11.134c7.21,0,9.694-2.987,9.694-9.068
		v-6.469c0-6.059-1.879-7.882-7.48-8.641l-10.593-1.463c-1.748-0.229-2.861-0.866-2.861-2.849v-3.69
		c0-2.061,0.596-2.735,2.371-2.735h17.067v-4.613c-1.389-1.764-5.042-2.415-7.593-2.415h-8.906c-7.647,0-10.61,3.444-10.61,9.274
		v6.272c0,5.779,2.395,7.699,8.784,8.65l9.126,1.332c2.214,0.355,2.777,1.11,2.777,3.039v3.961
		C340.015,269.391,339.306,270.312,337.634,270.312z"/>
	<polygon fill="#FFFFFF" points="190.182,244.309 202.182,244.309 202.182,277.872 211.76,277.872 211.76,244.309 223.639,244.309 
		223.639,235.016 190.182,235.016 	"/>
	<path fill="#FFFFFF" d="M339.248,176.377l-10.543,19.32l-10.203-19.32h-9.542c1.771,3.266,14.262,27.057,14.262,27.057v15.675
		h10.271c0-2.122,0-15.623,0-15.623s12.976-23.816,14.818-27.108H339.248z"/>
	<path fill="#FFFFFF" d="M295.428,233.771c-5.5,0-9.489,0.858-12.546,3.118c-3.201,2.341-4.703,6.286-4.703,12.434v13.376
		c0,6.19,1.558,10.347,4.676,12.425c2.512,1.985,6.604,2.936,12.573,2.936c5.901,0,10.108-0.974,12.519-2.889
		c3.112-2.199,4.739-6.493,4.739-12.472v-13.376c0-5.854-1.589-10.048-4.726-12.457
		C305.388,234.838,301.058,233.771,295.428,233.771z M304.227,262.11c0,7.531-2.297,9.266-8.799,9.266
		c-6.482,0-8.799-1.734-8.799-9.266v-12.723c0-7.35,2.316-8.938,8.799-8.938c6.502,0,8.799,1.588,8.799,8.938V262.11z"/>
</g>
</svg>
